# xmcd CD database file
#
# Track frame offsets:
#	150
#	27300
#	53700
#	83250
#	114300
#	148950
#	179850
#	222600
#	256800
#	279900
#
# Disc length: 4292 seconds
#
# Revision: 0
# Processed by: cddbd v1.5.2PL0 Copyright (c) Steve Scherf et al.
# Submitted via: CDex 1.51
#
DISCID=8f10c20a
DTITLE=Bossa Jazz Quartet - Rio Barquinho Upa Neguinho
DYEAR=1900
DGENRE=Jazz
TTITLE0=1- Manhã de carnaval
TTITLE1=2 - Barquinho
TTITLE2=3 - Garota de Ipanema
TTITLE3=4 - On the green dolphin street
TTITLE4=5 - Rio
TTITLE5=6 - Inútil Paisagem
TTITLE6=7 - Influência do Jazz
TTITLE7=8 - Upa Neguinho
TTITLE8=9 - Motoro
TTITLE9=10 - Gula Gula
EXTD=
EXTT0=
EXTT1=
EXTT2=
EXTT3=
EXTT4=
EXTT5=
EXTT6=
EXTT7=
EXTT8=
EXTT9=
PLAYORDER=
